<svg xmlns="http://www.w3.org/2000/svg" width="109.83" height="77.622" viewBox="0 0 109.83 77.622">
  <g id="_007-dove" data-name="007-dove" transform="translate(43 -77.082)">
    <g id="Group_2" data-name="Group 2" transform="translate(-43 77.082)">
      <path id="Path_46" data-name="Path 46" d="M213.513,124.93a10.083,10.083,0,0,0-9.785-10.335,9.457,9.457,0,0,0-6.186,2.327,9.457,9.457,0,0,0-6.186-2.327,10.083,10.083,0,0,0-9.786,10.335,14.249,14.249,0,0,0,1.857,6.438,1.609,1.609,0,0,0,2.837-1.517,11.052,11.052,0,0,1-1.477-4.921,6.868,6.868,0,0,1,6.569-7.118,6.365,6.365,0,0,1,4.936,2.425,1.609,1.609,0,0,0,2.5,0,6.365,6.365,0,0,1,4.936-2.425,6.867,6.867,0,0,1,6.568,7.118c0,3.251-3.122,10.012-11.5,14.318-.409.21-.83.414-1.255.607-.424-.193-.845-.4-1.255-.607a25.9,25.9,0,0,1-5.988-4.209,1.609,1.609,0,0,0-2.213,2.336,29.112,29.112,0,0,0,6.73,4.736c.551.283,1.121.555,1.693.808a2.561,2.561,0,0,0,2.067,0c.572-.253,1.142-.525,1.692-.808,8.7-4.47,13.245-12.026,13.245-17.18Z" transform="translate(-142.627 -106.12)" fill="#404040"/>
      <path id="Path_47" data-name="Path 47" d="M319.143,201.977a1.609,1.609,0,0,0-1.572-1.479l-9.425-.183a8.951,8.951,0,0,0,1.09-8.118,1.609,1.609,0,0,0-1.924-.979l-8.471,2.3a1.609,1.609,0,1,0,.842,3.105l6.839-1.854a5.622,5.622,0,0,1-2.984,5.469,18.371,18.371,0,0,0-16.021,9.59l-1.873,3.424a21.345,21.345,0,0,0-1.79-2.293l.367-1.668a15.256,15.256,0,0,1,8.884-10.732,1.609,1.609,0,1,0-1.265-2.958,18.48,18.48,0,0,0-10.745,12.927,8.275,8.275,0,0,0-3.957-1.473c-4.268-.315-7.762,2.107-8.494,5.889a7.356,7.356,0,0,0,.332,3.951l-1.5.628a1.609,1.609,0,1,0,1.246,2.967l2.021-.848a7.315,7.315,0,0,0,1.115.909,17.008,17.008,0,0,0,24.469,16.8l9.923,6.013a3.63,3.63,0,0,0,4.557-.651,16.32,16.32,0,0,0,4-10.943,3.634,3.634,0,0,0-3.7-3.687l-9.193.184a3.623,3.623,0,0,0-.913-.777l-.234-.139a10.476,10.476,0,0,0,4.072-2.819,6.355,6.355,0,0,0,1.41-2.838,10.451,10.451,0,0,0,6.423-4.935,9.616,9.616,0,0,0,.85-5.97,8.863,8.863,0,0,0,5.627-8.807ZM311.165,231.3a.4.4,0,0,1,.3.12.412.412,0,0,1,.124.3,15.329,15.329,0,0,1-.612,4.159l-4.809-2.167a1.609,1.609,0,1,0-1.322,2.933l4.848,2.185a10.86,10.86,0,0,1-1.264,1.714.406.406,0,0,1-.51.065l-8.55-5.181a16.887,16.887,0,0,0,2.558-2.5,3.654,3.654,0,0,0,.728-1.458Zm.055-23.149a1.615,1.615,0,0,0-1.126,2.12,6.894,6.894,0,0,1-.3,5.026c-.893,1.69-2.733,2.9-5.469,3.6a1.609,1.609,0,0,0-1.193,1.791,2.85,2.85,0,0,1-.767,1.773c-1.022,1.217-3.98,3.294-12.306,3.53a1.609,1.609,0,0,0,.045,3.217h.047a40.558,40.558,0,0,0,6.376-.636l2.816,1.68a.4.4,0,0,1,.192.28.427.427,0,0,1-.094.35,13.881,13.881,0,0,1-17.709,3.059,13.736,13.736,0,0,1-6.556-14.023,1.609,1.609,0,0,0-.945-1.727,4.216,4.216,0,0,1-2.433-4.635c.481-2.485,2.981-3.447,5.1-3.292,2.514.185,5.236,3.166,6.971,6.228l-5.022,9.18a1.609,1.609,0,0,0,2.822,1.544l8.667-15.842a15.192,15.192,0,0,1,13.656-7.916l11.824.23a5.671,5.671,0,0,1-4.6,4.466Z" transform="translate(-209.334 -166.263)" fill="#404040"/>
      <path id="Path_48" data-name="Path 48" d="M306.857,289.323l-.021,0a1.6,1.6,0,0,0-1.875,1.275,1.614,1.614,0,1,0,1.9-1.271Z" transform="translate(-239.529 -243.345)" fill="#404040"/>
      <path id="Path_49" data-name="Path 49" d="M193.691,292.525a1.607,1.607,0,0,0,.309-.03l.02,0a1.6,1.6,0,0,0,1.261-1.885,1.614,1.614,0,1,0-1.591,1.919Z" transform="translate(-150.884 -243.358)" fill="#404040"/>
      <path id="Path_50" data-name="Path 50" d="M51.685,217.517l-1.5-.628a7.358,7.358,0,0,0,.332-3.951c-.733-3.782-4.226-6.2-8.494-5.889a8.253,8.253,0,0,0-3.961,1.458A18.388,18.388,0,0,0,24.9,194.752l-13.046-3.537a1.609,1.609,0,0,0-1.924.979,8.951,8.951,0,0,0,1.09,8.118l-9.425.183a1.609,1.609,0,0,0-1.572,1.479,8.864,8.864,0,0,0,5.627,8.807,9.614,9.614,0,0,0,.85,5.97,10.451,10.451,0,0,0,6.423,4.936,6.358,6.358,0,0,0,1.41,2.838,10.478,10.478,0,0,0,4.072,2.819l-.234.139a3.617,3.617,0,0,0-.913.777l-9.193-.184a3.634,3.634,0,0,0-3.7,3.687,16.319,16.319,0,0,0,4,10.943,3.63,3.63,0,0,0,4.557.651l9.91-6.006a16.973,16.973,0,0,0,13.6.633,1.609,1.609,0,1,0-1.149-3.005,13.763,13.763,0,0,1-15.551-4.1.428.428,0,0,1-.094-.349.4.4,0,0,1,.193-.28l2.816-1.68a40.581,40.581,0,0,0,6.376.636h.047a1.609,1.609,0,0,0,.045-3.217c-8.159-.232-11.151-2.242-12.209-3.419a2.875,2.875,0,0,1-.859-1.908,1.519,1.519,0,0,0-1.2-1.767c-2.736-.7-4.576-1.912-5.469-3.6a6.893,6.893,0,0,1-.3-5.018,1.609,1.609,0,0,0-1.123-2.128,5.661,5.661,0,0,1-4.6-4.466l11.824-.23a15.189,15.189,0,0,1,13.656,7.916l8.667,15.842a1.609,1.609,0,1,0,2.822-1.544l-5.022-9.18c1.6-2.821,4.31-6.032,6.971-6.228,2.12-.158,4.618.808,5.1,3.292a4.216,4.216,0,0,1-2.433,4.635,1.609,1.609,0,0,0-.945,1.727,13.911,13.911,0,0,1-3.463,11.508,1.609,1.609,0,1,0,2.369,2.177A17.168,17.168,0,0,0,47.3,220.544a7.338,7.338,0,0,0,1.117-.91l2.021.848a1.609,1.609,0,0,0,1.246-2.966Zm-31.9,17.912-8.544,5.178a.405.405,0,0,1-.51-.065,10.864,10.864,0,0,1-1.264-1.714l4.848-2.185A1.609,1.609,0,0,0,13,233.711l-4.809,2.167a15.34,15.34,0,0,1-.612-4.159.412.412,0,0,1,.124-.3.391.391,0,0,1,.3-.12l8.509.17a3.652,3.652,0,0,0,.728,1.458A17,17,0,0,0,19.789,235.429Zm11.858-25.607a18.382,18.382,0,0,0-16.021-9.59,5.624,5.624,0,0,1-2.985-5.47l11.414,3.095a15.182,15.182,0,0,1,10.888,11.428l.366,1.664a22.082,22.082,0,0,0-1.788,2.3Z" transform="translate(0 -166.262)" fill="#404040"/>
      <path id="Path_51" data-name="Path 51" d="M168.952,98.7a1.609,1.609,0,1,0,2.282-2.268l-1.679-1.689a1.609,1.609,0,0,0-2.282,2.268Z" transform="translate(-131.028 -90.155)" fill="#404040"/>
      <path id="Path_52" data-name="Path 52" d="M148.677,125.555l2.336.586a1.608,1.608,0,1,0,.783-3.12l-2.336-.586a1.608,1.608,0,1,0-.783,3.12Z" transform="translate(-115.831 -112.24)" fill="#404040"/>
      <path id="Path_53" data-name="Path 53" d="M195.645,79.413a1.609,1.609,0,1,0,3.125-.764l-.572-2.34a1.609,1.609,0,0,0-3.125.764Z" transform="translate(-153.196 -75.082)" fill="#404040"/>
      <path id="Path_54" data-name="Path 54" d="M324.044,99.177a1.6,1.6,0,0,0,1.141-.475l1.679-1.689a1.609,1.609,0,0,0-2.282-2.268L322.9,96.435a1.609,1.609,0,0,0,1.141,2.743Z" transform="translate(-253.278 -90.155)" fill="#404040"/>
      <path id="Path_55" data-name="Path 55" d="M338.764,124.971a1.606,1.606,0,0,0,1.952,1.169l2.336-.586a1.609,1.609,0,0,0-.783-3.121l-2.336.586A1.609,1.609,0,0,0,338.764,124.971Z" transform="translate(-266.066 -112.238)" fill="#404040"/>
      <path id="Path_56" data-name="Path 56" d="M300.6,80.593a1.606,1.606,0,0,0,1.945-1.18l.572-2.34a1.609,1.609,0,0,0-3.125-.764l-.572,2.34A1.608,1.608,0,0,0,300.6,80.593Z" transform="translate(-235.162 -75.082)" fill="#404040"/>
    </g>
  </g>
</svg>
