<svg xmlns="http://www.w3.org/2000/svg" width="75.502" height="81.122" viewBox="0 0 75.502 81.122">
  <g id="_003-reiki" data-name="003-reiki" transform="translate(-17.736)">
    <path id="Path_35" data-name="Path 35" d="M130.01,43.763c3.006-2.474,2.243-5.853,2.356-6.523h.229a5.9,5.9,0,0,0,5.9-5.9,4.326,4.326,0,0,0-1.793-3.505V24.491A19.773,19.773,0,0,0,122.273,5.48a7.555,7.555,0,0,0-14.529,0A19.773,19.773,0,0,0,93.317,24.491v3.346a4.325,4.325,0,0,0-1.793,3.506,5.9,5.9,0,0,0,5.9,5.9h.229v1.525a6.463,6.463,0,0,0,2.356,5A21.052,21.052,0,0,0,88.464,62.506V78.455a2.67,2.67,0,0,0,2.667,2.667h6.451a1.188,1.188,0,0,0,0-2.377H91.131a.291.291,0,0,1-.29-.29V62.506a18.658,18.658,0,0,1,11.93-17.369l2.116.7,3.553,5.469a1.188,1.188,0,0,0,1.993-1.295l-1.939-2.985,4.488,1.48a6.52,6.52,0,0,0,4.055,0l4.488-1.48-6.516,10.03L113.024,54a1.188,1.188,0,0,0-1.993,1.295l2.577,3.968c-1.379,2.375-5.85,10.718-6.142,19.484h-5.133a1.188,1.188,0,1,0,0,2.377h36.553a2.67,2.67,0,0,0,2.667-2.667V62.506A21.053,21.053,0,0,0,130.01,43.763Zm2.585-8.9h-.229V29.389h1.8a1.955,1.955,0,0,1,1.953,1.953A3.526,3.526,0,0,1,132.595,34.863ZM115.009,2.377a5.17,5.17,0,0,1,4.456,2.535,19.819,19.819,0,0,0-2.5-.158h-3.908a19.821,19.821,0,0,0-2.5.158A5.17,5.17,0,0,1,115.009,2.377ZM95.694,24.491A17.381,17.381,0,0,1,113.054,7.13h3.908a17.38,17.38,0,0,1,17.361,17.361v2.526c-.218-.008-.01,0-1.957,0V23.1a1.188,1.188,0,0,0-1.213-1.188c-7.322.15-12.023-1.2-13.973-4.021a3.213,3.213,0,0,0-2.431-1.389,3.138,3.138,0,0,0-2.541,1.016c-2.866,3.124-7.227,4.562-13.336,4.395A1.188,1.188,0,0,0,97.651,23.1v3.917c-1.947,0-1.74,0-1.957,0Zm1.728,10.373A3.526,3.526,0,0,1,93.9,31.342a1.955,1.955,0,0,1,1.953-1.953h1.8v5.474Zm18.87,11.382a4.13,4.13,0,0,1-2.567,0l-10.881-3.587a4.092,4.092,0,0,1-2.816-3.894V24.3c6.21-.038,10.776-1.737,13.932-5.177a.771.771,0,0,1,.627-.251.848.848,0,0,1,.639.37c2.344,3.39,7.179,5.048,14.764,5.057V38.765a4.092,4.092,0,0,1-2.816,3.894Zm22.885,32.209a.291.291,0,0,1-.29.29H109.845c.349-9.375,5.986-18.581,6.166-18.871l9.12-14.039,2.116-.7a18.658,18.658,0,0,1,11.93,17.369Z" transform="translate(-59.522)" fill="#404040"/>
    <path id="Path_36" data-name="Path 36" d="M234.772,242a7.134,7.134,0,0,1-5.785,0,1.188,1.188,0,1,0-.92,2.192,9.527,9.527,0,0,0,7.625,0,1.188,1.188,0,1,0-.92-2.192Z" transform="translate(-176.393 -203.577)" fill="#404040"/>
    <path id="Path_37" data-name="Path 37" d="M419.459,0a1.188,1.188,0,0,0-1.188,1.188V28.12a9.923,9.923,0,0,1-2.922,7.059l-3.917,3.92a.857.857,0,0,1-1.217-1.207l3.482-3.537a4.135,4.135,0,0,0,1.177-2.611l.828-11.878a1.652,1.652,0,0,0-3.177-.742l-2.6,6.34a.4.4,0,0,1-.764-.151v-5.56a12.779,12.779,0,0,1,2.872-8.059,3.943,3.943,0,0,0,.886-2.486V1.188a1.188,1.188,0,0,0-2.377,0v8.02a1.558,1.558,0,0,1-.35.983,15.163,15.163,0,0,0-3.407,9.562v5.56a2.773,2.773,0,0,0,5.34,1.052l.891-2.174-.515,7.388a1.758,1.758,0,0,1-.5,1.109l-3.482,3.537a3.234,3.234,0,0,0,4.592,4.554l3.917-3.92a12.282,12.282,0,0,0,3.618-8.739V1.188A1.188,1.188,0,0,0,419.459,0Z" transform="translate(-327.41)" fill="#404040"/>
    <path id="Path_38" data-name="Path 38" d="M29.862,36.225l-3.482-3.537a1.756,1.756,0,0,1-.5-1.109l-.515-7.389.891,2.175a2.773,2.773,0,0,0,5.34-1.052v-5.56a15.163,15.163,0,0,0-3.407-9.562,1.559,1.559,0,0,1-.35-.983V1.188a1.188,1.188,0,1,0-2.377,0v8.02a3.942,3.942,0,0,0,.886,2.486,12.779,12.779,0,0,1,2.872,8.059v5.56a.4.4,0,0,1-.764.151l-2.6-6.339a1.652,1.652,0,0,0-3.177.742l.829,11.878a4.135,4.135,0,0,0,1.177,2.611l3.482,3.537A.857.857,0,0,1,26.951,39.1l-3.917-3.92a9.922,9.922,0,0,1-2.922-7.059V1.188a1.188,1.188,0,0,0-2.377,0V28.12a12.282,12.282,0,0,0,3.618,8.739l3.917,3.92a3.234,3.234,0,0,0,4.592-4.554Z" transform="translate(0)" fill="#404040"/>
    <path id="Path_39" data-name="Path 39" d="M204.83,196.018a1.188,1.188,0,0,0-1.54-.673,2.184,2.184,0,0,1-1.809,0,1.188,1.188,0,0,0-.867,2.213,4.541,4.541,0,0,0,3.543,0A1.188,1.188,0,0,0,204.83,196.018Z" transform="translate(-153.267 -164.325)" fill="#404040"/>
    <path id="Path_40" data-name="Path 40" d="M283.678,195.345a2.185,2.185,0,0,1-1.809,0,1.188,1.188,0,1,0-.867,2.213,4.541,4.541,0,0,0,3.543,0,1.188,1.188,0,1,0-.867-2.213Z" transform="translate(-220.918 -164.325)" fill="#404040"/>
  </g>
</svg>
