<svg xmlns="http://www.w3.org/2000/svg" width="44.523" height="45.18" viewBox="0 0 44.523 45.18">
  <g id="cultures" transform="translate(-8.723 4)">
    <g id="Group_4" data-name="Group 4" transform="translate(8.723 -4)">
      <g id="Group_3" data-name="Group 3" transform="translate(0)">
        <path id="Path_57" data-name="Path 57" d="M47.868,25.583c-.334-.255-.764-.638-1.219-1.043a25.165,25.165,0,0,0-2.374-1.95,25.131,25.131,0,0,0,2.374-1.951c.455-.405.884-.789,1.219-1.043a.96.96,0,0,0-.3-1.679c-.4-.125-.936-.338-1.5-.564a25.143,25.143,0,0,0-2.9-1.02,25.127,25.127,0,0,0,1.563-2.645c.289-.537.561-1.044.789-1.4a.96.96,0,0,0-.852-1.476c-.42.02-.995,0-1.6-.016A25.128,25.128,0,0,0,40,10.833a25.145,25.145,0,0,0,.565-3.02c.088-.6.171-1.173.263-1.583a.96.96,0,0,0-1.306-1.1c-.388.162-.934.343-1.513.534A25.142,25.142,0,0,0,35.13,6.749a25.16,25.16,0,0,0-.5-3.031c-.124-.6-.241-1.16-.294-1.577a.959.959,0,0,0-1.6-.583c-.309.285-.761.642-1.239,1.019a25.124,25.124,0,0,0-2.334,2c-.133-.293-.292-.607-.479-.948a.662.662,0,1,0-1.16.638,9.492,9.492,0,0,1,.692,1.5,3.147,3.147,0,0,0-.243.508c-.035.1-.065.189-.093.282-.214-.429-.48-.861-.731-1.268-.17-.275-.331-.535-.43-.727a.823.823,0,0,0-1.462,0c-.1.192-.26.452-.43.727-.251.407-.518.839-.731,1.268-.028-.093-.058-.187-.093-.282a3.15,3.15,0,0,0-.242-.507A17.7,17.7,0,0,1,25.442,2.6c.192-.31.378-.611.542-.89.068.115.144.242.231.384a.662.662,0,1,0,1.13-.689c-.161-.265-.365-.6-.509-.882a.96.96,0,0,0-1.7,0c-.193.373-.5.863-.816,1.381a25.121,25.121,0,0,0-1.508,2.677,25.139,25.139,0,0,0-2.333-2c-.478-.377-.93-.734-1.239-1.019a.96.96,0,0,0-1.6.583c-.053.417-.17.98-.294,1.577a25.13,25.13,0,0,0-.5,3.031,25.142,25.142,0,0,0-2.876-1.08c-.579-.191-1.125-.372-1.513-.534a.96.96,0,0,0-1.306,1.1c.092.41.175.98.263,1.583a25.159,25.159,0,0,0,.566,3.019A25.109,25.109,0,0,0,8.9,10.8c-.609.018-1.184.036-1.6.016a.959.959,0,0,0-.852,1.476c.227.354.5.861.788,1.4A25.13,25.13,0,0,0,8.8,16.333a25.122,25.122,0,0,0-2.9,1.021c-.566.226-1.1.439-1.5.564A.96.96,0,0,0,4.1,19.6c.334.255.764.638,1.219,1.043a25.13,25.13,0,0,0,2.374,1.949A25.149,25.149,0,0,0,5.319,24.54c-.455.406-.884.789-1.219,1.043a.959.959,0,0,0,.3,1.679c.4.125.936.338,1.5.564a25.159,25.159,0,0,0,2.9,1.02A25.128,25.128,0,0,0,7.232,31.49c-.289.537-.561,1.044-.789,1.4A.96.96,0,0,0,7.3,34.364c.42-.02,1,0,1.6.016.5.015,1.024.031,1.546.031s1.037-.016,1.526-.063a25.139,25.139,0,0,0-.565,3.02c-.088.6-.171,1.173-.263,1.583a.959.959,0,0,0,1.306,1.1c.35-.146.821-.3,1.313-.468a.662.662,0,1,0-.416-1.256c-.272.09-.538.179-.787.267.053-.32.1-.669.157-1.031.214-1.468.506-3.479,1.145-4.24a2.448,2.448,0,0,1,.686-.593,8.436,8.436,0,0,0-.573,2.372c-.047.32-.091.623-.138.834a.822.822,0,0,0,1.12.94c.2-.083.489-.179.8-.281.454-.15.936-.31,1.375-.5-.038.089-.075.18-.11.276a3.142,3.142,0,0,0-.141.545,8.438,8.438,0,0,1-1.174.576.662.662,0,1,0,.505,1.223c.226-.093.435-.186.629-.279a25.138,25.138,0,0,0,.5,3.032c.124.6.241,1.16.294,1.577a.959.959,0,0,0,1.6.583c.309-.285.761-.642,1.239-1.019a25.14,25.14,0,0,0,2.333-2,25.13,25.13,0,0,0,1.507,2.676c.32.518.623,1.008.816,1.381a.96.96,0,0,0,1.7,0c.193-.373.5-.863.816-1.381A25.129,25.129,0,0,0,29.16,40.6a25.129,25.129,0,0,0,2.333,2c.478.377.93.734,1.239,1.019a.96.96,0,0,0,1.6-.583c.053-.417.17-.98.294-1.577a25.121,25.121,0,0,0,.5-3.03,25.143,25.143,0,0,0,2.876,1.08c.579.191,1.125.372,1.513.534a.96.96,0,0,0,1.306-1.1c-.092-.41-.175-.98-.263-1.583A25.14,25.14,0,0,0,40,34.348c.483.047.994.063,1.512.063s1.051-.016,1.561-.031c.609-.018,1.185-.036,1.6-.016a.96.96,0,0,0,.852-1.476c-.227-.354-.5-.86-.788-1.4a25.155,25.155,0,0,0-1.564-2.644,25.112,25.112,0,0,0,2.9-1.021c.566-.226,1.1-.439,1.5-.564a.96.96,0,0,0,.3-1.679Zm-1.317-6.62c-.246.21-.51.446-.783.688-1.108.988-2.624,2.34-3.6,2.512a2.447,2.447,0,0,1-.907.014,8.431,8.431,0,0,0,1.964-1.449c.242-.215.47-.419.642-.55a.823.823,0,0,0-.254-1.44c-.206-.064-.49-.177-.791-.3-.444-.177-.916-.364-1.376-.5.087-.043.174-.089.262-.14a3.138,3.138,0,0,0,.458-.327,17.394,17.394,0,0,1,3.416,1.109C45.919,18.719,46.248,18.85,46.551,18.963ZM36.684,35.287l.01.066-.063-.021a12.049,12.049,0,0,1-1.557-.6,15.314,15.314,0,0,0,1.294-1.089,12.006,12.006,0,0,1,.317,1.639ZM20.338,38.205l-.052.041-.014-.065a12.187,12.187,0,0,1-.262-1.633,15,15,0,0,0,1.578.574A12.18,12.18,0,0,1,20.338,38.205ZM20.01,8.632A12.166,12.166,0,0,1,20.272,7l.014-.065.053.041a12.191,12.191,0,0,1,1.25,1.083,14.989,14.989,0,0,0-1.578.574ZM15.6,11.524a12.083,12.083,0,0,1-.314-1.631l-.01-.066.063.021a12.112,12.112,0,0,1,1.55.592A15.347,15.347,0,0,0,15.6,11.524Zm-3.163,4.214a12.183,12.183,0,0,1-.849-1.42l-.032-.059.067,0a12.144,12.144,0,0,1,1.656.026,15.035,15.035,0,0,0-.842,1.454Zm-1.523,5.05a12.121,12.121,0,0,1-1.288-1.046l-.05-.044.062-.025A12.166,12.166,0,0,1,11.2,19.13,15.176,15.176,0,0,0,10.913,20.787Zm.29,5.263a12.165,12.165,0,0,1-1.565-.542l-.062-.025.05-.044a12.127,12.127,0,0,1,1.287-1.046A15.166,15.166,0,0,0,11.2,26.05ZM13.278,30.9a12.143,12.143,0,0,1-1.656.026l-.067,0,.032-.059a12.191,12.191,0,0,1,.849-1.42,15.046,15.046,0,0,0,.842,1.454ZM26.2,11.249a12.232,12.232,0,0,0-3.521-.531,11.8,11.8,0,0,0-5.953,1.6,13.853,13.853,0,1,1,0,20.537,11.867,11.867,0,0,0,17.751-8.944.662.662,0,0,0-1.316-.146,10.589,10.589,0,0,1-.409,1.965l-3.042-1.756a.662.662,0,1,0-.662,1.146l3.226,1.862a10.529,10.529,0,0,1-3.33,4.1l-.258-.963a.662.662,0,1,0-1.279.343l.367,1.37a10.517,10.517,0,0,1-1.129.537V26.51a.662.662,0,1,0-1.324,0v6.295a10.54,10.54,0,0,1-1.462.268l.706-2.636a.662.662,0,1,0-1.279-.343l-.815,3.042a10.558,10.558,0,0,1-1.713-.173L24.6,26.317a.662.662,0,1,0-1.146-.662l-4.024,6.97a10.573,10.573,0,0,1-4.5-2.888L18.634,27.6a.662.662,0,1,0-.662-1.146L14.083,28.7a10.549,10.549,0,0,1-1.093-1.94l4.747-1.272a.662.662,0,0,0-.343-1.279l-4.853,1.3a10.489,10.489,0,0,1-.389-2.255h9.912a.662.662,0,1,0,0-1.324H12.152a10.487,10.487,0,0,1,1.931-5.445l.76.439a.662.662,0,0,0,.662-1.146l-.576-.333a10.633,10.633,0,0,1,1.574-1.4l2.912,2.912a.662.662,0,0,0,.936-.936l-2.7-2.7a10.491,10.491,0,0,1,1.777-.764l4.024,6.97a.662.662,0,1,0,1.146-.662L20.76,12.217a10.55,10.55,0,0,1,1.713-.173l.266.991a.662.662,0,1,0,1.278-.343l-.157-.585a10.526,10.526,0,0,1,1.462.269V18.67a.662.662,0,0,0,1.324,0V12.814a10.563,10.563,0,0,1,3.1,1.94l-1.309,2.267a.662.662,0,1,0,1.146.662L30.7,15.739A10.508,10.508,0,0,1,32.273,18.2l-3.224,1.861A.662.662,0,1,0,29.71,21.2l3.041-1.756a10.552,10.552,0,0,1,.4,1.9.662.662,0,1,0,1.315-.154A11.862,11.862,0,0,0,26.2,11.249Zm5.43-4.275.052-.041L31.7,7a12.1,12.1,0,0,1,.263,1.641,15.067,15.067,0,0,0-1.583-.578A12.122,12.122,0,0,1,31.63,6.975Zm9.132,12.155a12.14,12.14,0,0,1,1.568.543l.062.025-.05.044a12.1,12.1,0,0,1-1.289,1.047A15.089,15.089,0,0,0,40.762,19.129ZM38.68,14.284a12.014,12.014,0,0,1,1.667-.027l.067,0-.032.059a12.081,12.081,0,0,1-.855,1.427,15.217,15.217,0,0,0-.847-1.461Zm-2-4.392a12,12,0,0,1-.317,1.639,15.3,15.3,0,0,0-1.294-1.089,12.032,12.032,0,0,1,1.557-.6l.063-.021-.01.066Zm-10.7,27.874c.283,0,.564-.008.843-.024a12.117,12.117,0,0,1-.808,1.452l-.035.057-.035-.057a12.094,12.094,0,0,1-.808-1.452C25.421,37.758,25.7,37.767,25.984,37.767Zm5.975-1.226a12.1,12.1,0,0,1-.262,1.641l-.014.065-.052-.041a12.116,12.116,0,0,1-1.255-1.087A15.042,15.042,0,0,0,31.959,36.54Zm7.569-7.105a12.089,12.089,0,0,1,.855,1.427l.032.059-.067,0A12.054,12.054,0,0,1,38.68,30.9,15.167,15.167,0,0,0,39.527,29.435Zm1.526-5.044a12.11,12.11,0,0,1,1.289,1.047l.05.044-.062.025a12.138,12.138,0,0,1-1.568.543A15.082,15.082,0,0,0,41.053,24.392Zm1.975-12.268c.365.011.718.022,1.042.024-.159.282-.327.593-.5.915-.7,1.307-1.666,3.1-2.526,3.593a2.445,2.445,0,0,1-.848.323,8.427,8.427,0,0,0,1.351-2.034c.153-.285.3-.554.415-.736a.823.823,0,0,0-.731-1.266c-.215.01-.521,0-.845-.009-.478-.014-.985-.029-1.464,0,.067-.07.132-.144.2-.221a3.142,3.142,0,0,0,.318-.464,17.409,17.409,0,0,1,3.59-.126Zm-4.608-5.2c.347-.115.682-.225.988-.334-.053.32-.1.669-.157,1.031-.214,1.468-.506,3.479-1.145,4.24a2.447,2.447,0,0,1-.686.593,8.432,8.432,0,0,0,.573-2.373c.047-.32.091-.623.138-.834a.823.823,0,0,0-1.12-.94c-.2.083-.489.179-.8.281-.454.15-.936.31-1.375.5.038-.089.075-.18.11-.276a3.15,3.15,0,0,0,.14-.544A17.394,17.394,0,0,1,38.42,6.925ZM32.313,3.616c.287-.226.564-.445.814-.651.059.318.131.664.2,1.022.3,1.453.714,3.443.375,4.376a2.446,2.446,0,0,1-.441.791,8.44,8.44,0,0,0-.273-2.425c-.066-.317-.128-.616-.155-.83a.823.823,0,0,0-1.374-.5c-.159.146-.4.336-.653.536a8.438,8.438,0,0,0-1.768,1.682,2.447,2.447,0,0,1,.171-.89c.34-.933,1.935-2.192,3.1-3.112ZM25.949,5.985l.035-.057.035.057a12.094,12.094,0,0,1,.808,1.452q-.419-.023-.843-.024c-.282,0-.563.009-.843.024a12.111,12.111,0,0,1,.808-1.452Zm-7.313-2c.074-.357.146-.7.2-1.022.25.206.527.425.814.651,1.165.919,2.76,2.178,3.1,3.112a2.448,2.448,0,0,1,.171.89,8.436,8.436,0,0,0-1.768-1.682c-.254-.2-.494-.39-.653-.536a.823.823,0,0,0-1.374.5c-.027.214-.09.513-.155.83-.1.468-.2.966-.254,1.442-.058-.078-.118-.156-.184-.234a3.135,3.135,0,0,0-.4-.394A17.415,17.415,0,0,1,18.636,3.987ZM12.717,7.622c-.053-.361-.1-.711-.157-1.031.305.108.641.219.988.333,1.409.465,3.339,1.1,3.977,1.864a2.449,2.449,0,0,1,.467.78,8.423,8.423,0,0,0-2.239-.978c-.307-.1-.6-.2-.8-.281a.823.823,0,0,0-1.12.94c.047.21.091.513.138.833.069.473.142.975.254,1.441q-.121-.08-.252-.156a3.152,3.152,0,0,0-.513-.233,17.46,17.46,0,0,1-.747-3.512ZM8.4,13.063c-.173-.322-.341-.633-.5-.915.324,0,.677-.013,1.042-.024,1.484-.044,3.515-.105,4.375.391a2.447,2.447,0,0,1,.7.572,8.437,8.437,0,0,0-2.435-.152c-.324.01-.629.019-.845.009a.823.823,0,0,0-.731,1.266c.116.182.261.451.415.736.227.421.467.868.732,1.267-.094-.023-.191-.043-.29-.06a3.152,3.152,0,0,0-.561-.044,17.707,17.707,0,0,1-1.9-3.045ZM6.2,19.652c-.273-.243-.536-.478-.783-.689.3-.113.632-.244.971-.379,1.379-.549,3.267-1.3,4.245-1.129a2.448,2.448,0,0,1,.856.3,8.446,8.446,0,0,0-2.341.69c-.3.12-.585.233-.791.3a.823.823,0,0,0-.254,1.44c.171.131.4.334.641.55.357.318.736.656,1.122.941-.1.011-.194.025-.294.042a3.146,3.146,0,0,0-.542.151A17.711,17.711,0,0,1,6.2,19.652Zm-.783,6.564c.246-.21.51-.446.783-.689,1.108-.988,2.624-2.34,3.6-2.512A2.45,2.45,0,0,1,10.711,23a8.425,8.425,0,0,0-1.966,1.45c-.242.215-.47.419-.642.55a.823.823,0,0,0,.254,1.44c.206.064.49.177.791.3.444.177.916.364,1.375.5q-.129.065-.261.14A3.137,3.137,0,0,0,9.8,27.7,17.394,17.394,0,0,1,6.388,26.6c-.339-.135-.668-.266-.971-.379Zm3.523,6.84c-.365-.011-.718-.022-1.042-.024.159-.282.327-.593.5-.915.7-1.307,1.666-3.1,2.526-3.593a2.448,2.448,0,0,1,.847-.322,8.437,8.437,0,0,0-1.35,2.033c-.153.285-.3.554-.415.736a.823.823,0,0,0,.731,1.266c.215-.01.521,0,.845.009.278.008.565.017.851.017.206,0,.411,0,.611-.017q-.1.1-.2.221a3.154,3.154,0,0,0-.318.464,17.413,17.413,0,0,1-3.589.126Zm6.4,2.276-.063.021.01-.066a12.111,12.111,0,0,1,.314-1.631,15.331,15.331,0,0,0,1.289,1.084,12.11,12.11,0,0,1-1.55.592Zm4.318,6.231c-.287.226-.564.445-.814.651-.059-.318-.131-.664-.2-1.022-.3-1.453-.714-3.443-.375-4.376a2.447,2.447,0,0,1,.442-.792,8.436,8.436,0,0,0,.273,2.426c.066.317.128.616.155.83a.823.823,0,0,0,1.374.5c.159-.146.4-.336.653-.536a8.44,8.44,0,0,0,1.767-1.682,2.447,2.447,0,0,1-.17.889c-.34.933-1.935,2.192-3.1,3.112Zm6.871,1.02c-.192.311-.378.611-.542.89-.164-.279-.35-.58-.542-.89a17.7,17.7,0,0,1-1.685-3.172A3.151,3.151,0,0,0,24,38.9q.052-.143.093-.281c.214.429.48.861.731,1.267.17.275.331.535.43.727a.823.823,0,0,0,1.462,0c.1-.192.26-.452.43-.727.251-.407.518-.839.731-1.268.028.093.058.187.093.282a3.143,3.143,0,0,0,.242.507,17.691,17.691,0,0,1-1.685,3.172Zm6.806-1.391c-.074.358-.146.7-.205,1.022-.25-.206-.527-.425-.814-.651-1.165-.919-2.76-2.178-3.1-3.112a2.446,2.446,0,0,1-.171-.89,8.435,8.435,0,0,0,1.768,1.683c.254.2.494.39.653.536a.823.823,0,0,0,1.374-.5c.027-.214.09-.513.155-.83.1-.468.2-.965.254-1.441q.086.116.184.233a3.14,3.14,0,0,0,.4.394,17.427,17.427,0,0,1-.5,3.557Zm5.919-3.635c.053.361.1.711.157,1.031-.305-.108-.641-.219-.988-.333-1.409-.465-3.339-1.1-3.977-1.864a2.447,2.447,0,0,1-.464-.778,8.436,8.436,0,0,0,2.236.976c.307.1.6.2.8.281a.823.823,0,0,0,1.12-.94c-.047-.21-.091-.513-.138-.833-.069-.473-.142-.975-.254-1.441q.121.08.252.156a3.141,3.141,0,0,0,.512.233,17.7,17.7,0,0,1,.747,3.513Zm4.319-5.44c.173.321.34.633.5.915-.324,0-.677.013-1.042.024-1.483.045-3.515.106-4.375-.391a2.447,2.447,0,0,1-.7-.572,5.845,5.845,0,0,0,1.584.169c.286,0,.574-.009.851-.017.324-.01.629-.019.845-.009a.823.823,0,0,0,.731-1.266c-.116-.182-.261-.451-.415-.736-.227-.421-.468-.868-.732-1.267.094.023.191.043.291.061a3.115,3.115,0,0,0,.541.044h.019a17.406,17.406,0,0,1,1.9,3.046ZM45.58,26.6c-1.379.549-3.267,1.3-4.245,1.129a2.447,2.447,0,0,1-.857-.3,8.437,8.437,0,0,0,2.342-.69c.3-.12.585-.233.791-.3A.823.823,0,0,0,43.865,25c-.172-.131-.4-.334-.642-.55-.357-.318-.736-.656-1.122-.941.1-.011.194-.024.294-.042a3.148,3.148,0,0,0,.542-.151,17.4,17.4,0,0,1,2.831,2.211c.272.243.536.478.783.689-.3.113-.632.244-.971.379Z" transform="translate(-3.723 0)" fill="#8d98a6"/>
        <path id="Path_58" data-name="Path 58" d="M306.278,248.5h-.634a.662.662,0,0,0,0,1.324h.634a.662.662,0,0,0,0-1.324Z" transform="translate(-278.398 -226.572)" fill="#8d98a6"/>
        <path id="Path_59" data-name="Path 59" d="M376.332,212.425h.009a.658.658,0,0,0,.658-.662.664.664,0,1,0-.666.662Z" transform="translate(-342.849 -192.473)" fill="#8d98a6"/>
        <path id="Path_60" data-name="Path 60" d="M347.278,343.738h.012a.658.658,0,0,0,.654-.665.666.666,0,0,0-.666-.658h0a.662.662,0,0,0,0,1.324Z" transform="translate(-316.358 -312.199)" fill="#8d98a6"/>
        <path id="Path_61" data-name="Path 61" d="M293.586,121.46h0a.662.662,0,0,0,0,1.324h.012a.658.658,0,0,0,.654-.665A.666.666,0,0,0,293.586,121.46Z" transform="translate(-267.404 -110.742)" fill="#8d98a6"/>
        <path id="Path_62" data-name="Path 62" d="M356.868,196.077h.009a.658.658,0,0,0,.658-.662.664.664,0,1,0-.666.662Z" transform="translate(-325.102 -177.568)" fill="#8d98a6"/>
        <path id="Path_63" data-name="Path 63" d="M231.892,229.559a2.333,2.333,0,1,0,2.333,2.333A2.336,2.336,0,0,0,231.892,229.559Zm0,3.343a1.01,1.01,0,1,1,1.01-1.01A1.011,1.011,0,0,1,231.892,232.9Z" transform="translate(-209.631 -209.302)" fill="#8d98a6"/>
        <path id="Path_64" data-name="Path 64" d="M166.3,318.823l-1.187,1.187a.662.662,0,0,0,.936.936l1.187-1.187a.662.662,0,0,0-.936-.936Z" transform="translate(-150.694 -290.513)" fill="#8d98a6"/>
        <path id="Path_65" data-name="Path 65" d="M187.654,270.8l-2.2,1.268a.662.662,0,1,0,.662,1.146l2.2-1.268a.662.662,0,1,0-.662-1.146Z" transform="translate(-169.119 -246.823)" fill="#8d98a6"/>
        <path id="Path_66" data-name="Path 66" d="M277.843,298.844a.662.662,0,0,0-.242.9l1.072,1.856a.662.662,0,0,0,1.146-.662l-1.072-1.856A.662.662,0,0,0,277.843,298.844Z" transform="translate(-253.352 -272.392)" fill="#8d98a6"/>
        <path id="Path_67" data-name="Path 67" d="M154.465,193.724l-5.473-3.16a.662.662,0,1,0-.662,1.146l5.473,3.16a.662.662,0,0,0,.662-1.146Z" transform="translate(-135.269 -173.667)" fill="#8d98a6"/>
        <path id="Path_68" data-name="Path 68" d="M131.1,216.837l-2.011-.539a.662.662,0,1,0-.343,1.279l2.011.539a.662.662,0,0,0,.343-1.279Z" transform="translate(-117.264 -197.191)" fill="#8d98a6"/>
      </g>
    </g>
  </g>
</svg>
