<svg xmlns="http://www.w3.org/2000/svg" width="81.119" height="81.122" viewBox="0 0 81.119 81.122">
  <g id="_002-tarot-1" data-name="002-tarot-1" transform="translate(-0.338 0)">
    <path id="Path_11" data-name="Path 11" d="M96,392.119l-2.5.441a1.185,1.185,0,0,1-1.374-.961l-.441-2.5a1.353,1.353,0,1,0-2.664.471l.44,2.5a3.9,3.9,0,0,0,3.83,3.215,3.984,3.984,0,0,0,.676-.059l2.5-.442A1.353,1.353,0,1,0,96,392.119Zm0,0" transform="translate(-74.604 -326.447)" fill="#404040"/>
    <path id="Path_12" data-name="Path 12" d="M259.472,358.379l-.44-2.5a1.353,1.353,0,1,0-2.665.471l.44,2.5a1.182,1.182,0,0,1-.959,1.372l-2.5.443a1.353,1.353,0,0,0,.234,2.684,1.263,1.263,0,0,0,.237-.02l2.5-.441a3.888,3.888,0,0,0,3.155-4.507Zm0,0" transform="translate(-211.963 -298.519)" fill="#404040"/>
    <path id="Path_13" data-name="Path 13" d="M191.246,37.38l2.5-.441a1.169,1.169,0,0,1,.885.2,1.183,1.183,0,0,1,.487.765l.441,2.5a1.353,1.353,0,0,0,1.33,1.118,1.376,1.376,0,0,0,.237-.02,1.353,1.353,0,0,0,1.1-1.568l-.44-2.5a3.9,3.9,0,0,0-4.508-3.155l-2.5.44a1.353,1.353,0,0,0,.471,2.665Zm0,0" transform="translate(-159.305 -28.791)" fill="#404040"/>
    <path id="Path_14" data-name="Path 14" d="M38.236,62.638l2.5-.435a1.353,1.353,0,1,0-.471-2.665l-2.5.441a3.9,3.9,0,0,0-3.155,4.508l.44,2.5A1.352,1.352,0,0,0,36.382,68.1a1.448,1.448,0,0,0,.237-.02,1.353,1.353,0,0,0,1.1-1.568l-.441-2.5a1.184,1.184,0,0,1,.961-1.372Zm0,0" transform="translate(-28.79 -50.081)" fill="#404040"/>
    <path id="Path_15" data-name="Path 15" d="M82.258,155.119a5.71,5.71,0,0,0,.085-3.323,8.907,8.907,0,0,0,1.729-.938,2.843,2.843,0,0,1,.93,1.689c.7,2.928,2.62,3.86,3.645,3.949.04,0,.081,0,.12,0a1.378,1.378,0,0,0,1.375-1.232,1.326,1.326,0,0,0-1.2-1.461c-.037-.008-.9-.193-1.308-1.894a5.723,5.723,0,0,0-1.594-2.927c.095-.12.194-.235.282-.363a8.946,8.946,0,0,0,.751-1.305,2.834,2.834,0,0,1,1.654,1,5.258,5.258,0,0,0,3.8,1.863,3.208,3.208,0,0,0,1.33-.271,1.379,1.379,0,0,0,.677-1.81,1.325,1.325,0,0,0-1.771-.666c-.032.014-.878.284-2.077-.982a5.726,5.726,0,0,0-2.841-1.736,8.881,8.881,0,0,0,.057-1.966,2.839,2.839,0,0,1,1.924.041c2.892.858,4.654-.34,5.242-1.183a1.378,1.378,0,0,0-.313-1.909,1.327,1.327,0,0,0-1.866.31c-.025.027-.619.685-2.29.188a5.732,5.732,0,0,0-3.324-.087,8.836,8.836,0,0,0-.939-1.724,2.825,2.825,0,0,1,1.693-.933c2.927-.7,3.86-2.621,3.949-3.645a1.379,1.379,0,0,0-1.227-1.495,1.331,1.331,0,0,0-1.461,1.2c0,.037-.192.9-1.894,1.309a5.713,5.713,0,0,0-2.931,1.6,9.055,9.055,0,0,0-1.667-1.031,2.831,2.831,0,0,1,1-1.657c2.185-2.068,2.029-4.194,1.6-5.13a1.38,1.38,0,0,0-1.81-.676,1.326,1.326,0,0,0-.666,1.771c.012.034.285.877-.982,2.077a5.729,5.729,0,0,0-1.737,2.841,8.944,8.944,0,0,0-1.964-.056,2.844,2.844,0,0,1,.056-1.917c.858-2.886-.339-4.653-1.182-5.242a1.381,1.381,0,0,0-1.909.314,1.326,1.326,0,0,0,.31,1.865c.028.025.686.619.188,2.291a5.729,5.729,0,0,0-.086,3.324,8.843,8.843,0,0,0-1.728.936,2.843,2.843,0,0,1-.93-1.69c-.7-2.927-2.62-3.859-3.645-3.949a1.378,1.378,0,0,0-1.495,1.227,1.325,1.325,0,0,0,1.2,1.461c.037,0,.9.192,1.308,1.894a5.712,5.712,0,0,0,1.6,2.919c-.095.121-.193.237-.281.364a8.893,8.893,0,0,0-.751,1.305,2.842,2.842,0,0,1-1.653-1c-2.067-2.183-4.194-2.029-5.13-1.6a1.379,1.379,0,0,0-.676,1.81,1.325,1.325,0,0,0,1.771.666c.034-.012.878-.282,2.077.982a5.75,5.75,0,0,0,2.841,1.741,9.031,9.031,0,0,0-.056,1.961,2.836,2.836,0,0,1-1.924-.042c-2.886-.86-4.653.339-5.242,1.182a1.364,1.364,0,0,0,1.091,2.158,1.3,1.3,0,0,0,1.074-.562c.026-.027.618-.684,2.291-.188a5.719,5.719,0,0,0,3.324.085,8.759,8.759,0,0,0,.936,1.728,2.831,2.831,0,0,1-1.69.931c-2.926.7-3.858,2.619-3.949,3.643a1.378,1.378,0,0,0,1.226,1.5h.126a1.321,1.321,0,0,0,1.336-1.205c.007-.037.192-.9,1.894-1.309a5.716,5.716,0,0,0,2.926-1.593c.121.095.237.193.364.281a9.082,9.082,0,0,0,1.305.752,2.823,2.823,0,0,1-1,1.652c-2.186,2.068-2.029,4.194-1.6,5.13a1.4,1.4,0,0,0,1.258.8,1.315,1.315,0,0,0,.552-.121,1.327,1.327,0,0,0,.666-1.771c-.012-.035-.285-.878.982-2.077a5.726,5.726,0,0,0,1.737-2.841,8.805,8.805,0,0,0,1.218.094c.243,0,.49-.045.736-.065a2.8,2.8,0,0,1-.03,1.955c-.858,2.886.34,4.653,1.183,5.242a1.391,1.391,0,0,0,.8.25,1.344,1.344,0,0,0,1.108-.564,1.328,1.328,0,0,0-.308-1.867C82.418,157.384,81.761,156.791,82.258,155.119ZM72.822,144.6a.163.163,0,0,0-.012-.074,6.254,6.254,0,0,1,10.939-5.088c.012.017.023.035.037.053a6.2,6.2,0,0,1,1.353,2.879.166.166,0,0,0,.011.073,6.262,6.262,0,0,1-5.055,7.2l-.068.011A6.263,6.263,0,0,1,72.822,144.6Zm0,0" transform="translate(-52.422 -106.983)" fill="#404040"/>
    <path id="Path_16" data-name="Path 16" d="M75.93,13.092,47.186,7.722a6.708,6.708,0,0,0-3.666.328l-.434-2.462A6.764,6.764,0,0,0,35.248.1L5.927,5.277A6.764,6.764,0,0,0,.441,13.115l9.8,55.558a6.772,6.772,0,0,0,6.647,5.592,6.849,6.849,0,0,0,1.19-.106L29.746,72.1a6.73,6.73,0,0,0,4.735,3.531L63.242,81a6.733,6.733,0,0,0,7.884-5.41l10.215-54.6a6.765,6.765,0,0,0-5.411-7.9ZM52.148,56.948l-.477-2.706a12.075,12.075,0,0,0,4.847-17.576,11.566,11.566,0,0,0-5.351-4.351,11.739,11.739,0,0,1,4.037.042,12.44,12.44,0,0,1-3.056,24.6ZM48.509,34.34a8.848,8.848,0,0,1,5.755,3.825,9.375,9.375,0,0,1-3.092,13.28l-3.021-17.15C48.27,34.309,48.39,34.318,48.509,34.34Zm-30.9,37.152a4.059,4.059,0,0,1-4.7-3.29l-9.8-55.558A4.059,4.059,0,0,1,6.4,7.943l29.32-5.175a4.114,4.114,0,0,1,.714-.063A4.059,4.059,0,0,1,40.42,6.06l9.8,55.556a4.058,4.058,0,0,1-3.292,4.7Zm61.067-51L68.469,75.1a4.034,4.034,0,0,1-4.724,3.247L34.983,72.974a4,4,0,0,1-2.312-1.387l4.083-.721a3.85,3.85,0,0,0,.721.222l2.464.46a1.328,1.328,0,0,0,1.578-1.521l5.9-1.042A6.771,6.771,0,0,0,52.9,61.149l-.261-1.475c.088,0,.177.019.271.019a15.162,15.162,0,0,0,2.809-30,14.6,14.6,0,0,0-8.209.874L45.615,19.821a1.344,1.344,0,0,0,.426-.747l.46-2.462a1.153,1.153,0,0,1,1.345-.92l2.462.46a1.353,1.353,0,0,0,.5-2.659l-2.462-.46A3.842,3.842,0,0,0,44.659,14.4l-.633-3.585a4,4,0,0,1,2.662-.434l28.747,5.371a4.058,4.058,0,0,1,3.247,4.735Zm0,0" transform="translate(0 0)" fill="#404040"/>
    <path id="Path_17" data-name="Path 17" d="M374.844,432.373a1.353,1.353,0,0,0-1.577,1.083l-.461,2.462a1.154,1.154,0,0,1-1.343.92l-2.464-.46a1.353,1.353,0,0,0-.5,2.66l2.462.46a3.919,3.919,0,0,0,.717.067,3.861,3.861,0,0,0,3.788-3.151l.461-2.462a1.352,1.352,0,0,0-1.087-1.579Zm0,0" transform="translate(-308.872 -363.805)" fill="#404040"/>
    <path id="Path_18" data-name="Path 18" d="M436.791,108.65l-2.462-.46a1.353,1.353,0,0,0-.5,2.66l2.462.46a1.153,1.153,0,0,1,.92,1.344l-.46,2.462a1.353,1.353,0,0,0,1.082,1.579,1.48,1.48,0,0,0,.25.023,1.353,1.353,0,0,0,1.329-1.105l.46-2.462A3.862,3.862,0,0,0,436.791,108.65Zm0,0" transform="translate(-363.845 -91.019)" fill="#404040"/>
    <path id="Path_19" data-name="Path 19" d="M404.688,131.058a1.455,1.455,0,0,0,.249.023,1.353,1.353,0,0,0,1.328-1.105l.23-1.231a1.353,1.353,0,0,0-2.659-.5l-.23,1.231a1.354,1.354,0,0,0,1.083,1.579Zm0,0" transform="translate(-339.313 -106.993)" fill="#404040"/>
    <path id="Path_20" data-name="Path 20" d="M381.258,147.865a1.352,1.352,0,0,0-1.082-1.579l-1.23-.23a1.353,1.353,0,1,0-.5,2.659l1.23.23a1.354,1.354,0,0,0,1.579-1.081Zm0,0" transform="translate(-317.229 -122.88)" fill="#404040"/>
    <path id="Path_21" data-name="Path 21" d="M398.161,165.937a1.353,1.353,0,0,0-1.579,1.083l-.232,1.23a1.353,1.353,0,0,0,1.083,1.579,1.3,1.3,0,0,0,.25.024,1.352,1.352,0,0,0,1.328-1.1l.232-1.231a1.354,1.354,0,0,0-1.083-1.58Zm0,0" transform="translate(-333.21 -139.61)" fill="#404040"/>
    <path id="Path_22" data-name="Path 22" d="M419.085,153.563l-1.233-.23a1.353,1.353,0,0,0-.5,2.659l1.231.23a1.466,1.466,0,0,0,.25.023,1.353,1.353,0,0,0,.248-2.683Zm0,0" transform="translate(-349.981 -129.006)" fill="#404040"/>
    <path id="Path_23" data-name="Path 23" d="M100.83,81.7a1.368,1.368,0,0,0,.235-.02,1.353,1.353,0,0,0,1.1-1.568l-.22-1.249a1.353,1.353,0,0,0-2.664.469l.219,1.249A1.354,1.354,0,0,0,100.83,81.7Zm0,0" transform="translate(-83.243 -65.448)" fill="#404040"/>
    <path id="Path_24" data-name="Path 24" d="M81.1,106.914a1.368,1.368,0,0,0,.235-.02l1.249-.22a1.353,1.353,0,1,0-.468-2.665l-1.25.22a1.353,1.353,0,0,0,.234,2.685Zm0,0" transform="translate(-66.818 -87.502)" fill="#404040"/>
    <path id="Path_25" data-name="Path 25" d="M107.292,116.984a1.354,1.354,0,0,0-1.1,1.568l.221,1.249a1.352,1.352,0,0,0,1.331,1.117,1.264,1.264,0,0,0,.237-.02,1.352,1.352,0,0,0,1.1-1.566l-.22-1.25a1.354,1.354,0,0,0-1.568-1.1Zm0,0" transform="translate(-89.057 -98.42)" fill="#404040"/>
    <path id="Path_26" data-name="Path 26" d="M120.507,99.958a1.367,1.367,0,0,0,.235-.02l1.25-.22a1.353,1.353,0,0,0-.469-2.665l-1.249.22a1.353,1.353,0,0,0,.233,2.686Zm0,0" transform="translate(-99.98 -81.648)" fill="#404040"/>
    <path id="Path_27" data-name="Path 27" d="M217.159,325.113a1.354,1.354,0,0,0-1.1,1.568l.22,1.248a1.353,1.353,0,0,0,1.33,1.119,1.267,1.267,0,0,0,.237-.022,1.353,1.353,0,0,0,1.1-1.567l-.22-1.25A1.353,1.353,0,0,0,217.159,325.113Zm0,0" transform="translate(-181.506 -273.552)" fill="#404040"/>
    <path id="Path_28" data-name="Path 28" d="M198.97,351.572l-1.25.22a1.353,1.353,0,0,0,.234,2.684,1.263,1.263,0,0,0,.237-.02l1.249-.22a1.353,1.353,0,0,0-.469-2.664Zm0,0" transform="translate(-165.153 -295.821)" fill="#404040"/>
    <path id="Path_29" data-name="Path 29" d="M224.108,364.518a1.353,1.353,0,0,0-1.1,1.567l.222,1.25a1.353,1.353,0,0,0,1.33,1.117,1.378,1.378,0,0,0,.237-.02,1.353,1.353,0,0,0,1.1-1.573l-.22-1.249A1.353,1.353,0,0,0,224.108,364.518Zm0,0" transform="translate(-187.353 -306.709)" fill="#404040"/>
    <path id="Path_30" data-name="Path 30" d="M239.9,345.683a1.354,1.354,0,0,0-1.568-1.1l-1.25.22a1.353,1.353,0,0,0,.234,2.686,1.32,1.32,0,0,0,.237-.022l1.249-.22a1.354,1.354,0,0,0,1.1-1.567Zm0,0" transform="translate(-198.266 -289.937)" fill="#404040"/>
    <path id="Path_31" data-name="Path 31" d="M356.8,387.314a1.292,1.292,0,0,0,.249.023,1.352,1.352,0,0,0,1.328-1.1l.23-1.232a1.353,1.353,0,0,0-2.66-.5l-.23,1.231a1.352,1.352,0,0,0,1.082,1.579Zm0,0" transform="translate(-299.017 -322.622)" fill="#404040"/>
    <path id="Path_32" data-name="Path 32" d="M333.579,404.173A1.353,1.353,0,0,0,332.5,402.6l-1.231-.23a1.353,1.353,0,0,0-.5,2.659l1.231.23a1.292,1.292,0,0,0,.249.023A1.353,1.353,0,0,0,333.579,404.173Zm0,0" transform="translate(-277.15 -338.561)" fill="#404040"/>
    <path id="Path_33" data-name="Path 33" d="M350.247,422.211a1.353,1.353,0,0,0-1.579,1.083l-.232,1.231a1.353,1.353,0,0,0,1.083,1.579,1.409,1.409,0,0,0,.25.023,1.353,1.353,0,0,0,1.328-1.1l.23-1.231a1.353,1.353,0,0,0-1.081-1.58Zm0,0" transform="translate(-292.892 -355.254)" fill="#404040"/>
    <path id="Path_34" data-name="Path 34" d="M368.327,410.663a1.353,1.353,0,0,0,1.083,1.577l1.231.23a1.249,1.249,0,0,0,.25.023,1.353,1.353,0,0,0,.246-2.683l-1.231-.23a1.354,1.354,0,0,0-1.579,1.083Zm0,0" transform="translate(-309.629 -344.626)" fill="#404040"/>
  </g>
</svg>
