<svg id="twitter-icon" xmlns="http://www.w3.org/2000/svg" width="39.285" height="39.285" viewBox="0 0 39.285 39.285">
  <g id="Path_6" data-name="Path 6" fill="#5e5573">
    <path d="M 19.64233589172363 38.78467559814453 C 17.05791664123535 38.78467559814453 14.55106544494629 38.27862548828125 12.19142627716064 37.28057479858398 C 9.912035942077637 36.31647491455078 7.864815711975098 34.93617630004883 6.106656074523926 33.17801666259766 C 4.348495960235596 31.41985511779785 2.968195915222168 29.37263679504395 2.004095792770386 27.09324645996094 C 1.006045937538147 24.73360633850098 0.4999958872795105 22.22675514221191 0.4999958872795105 19.64233589172363 C 0.4999958872795105 17.05791664123535 1.006045937538147 14.55106544494629 2.004095792770386 12.19142627716064 C 2.968195915222168 9.912035942077637 4.348495960235596 7.864815711975098 6.106656074523926 6.106656074523926 C 7.864815711975098 4.348495960235596 9.912035942077637 2.968195915222168 12.19142627716064 2.004095792770386 C 14.55106544494629 1.006045937538147 17.05791664123535 0.4999958872795105 19.64233589172363 0.4999958872795105 C 22.22675514221191 0.4999958872795105 24.73360633850098 1.006045937538147 27.09324645996094 2.004095792770386 C 29.37263679504395 2.968195915222168 31.41985511779785 4.348495960235596 33.17801666259766 6.106656074523926 C 34.93617630004883 7.864815711975098 36.31647491455078 9.912035942077637 37.28057479858398 12.19142627716064 C 38.27862548828125 14.55106544494629 38.78467559814453 17.05791664123535 38.78467559814453 19.64233589172363 C 38.78467559814453 22.22675514221191 38.27862548828125 24.73360633850098 37.28057479858398 27.09324645996094 C 36.31647491455078 29.37263679504395 34.93617630004883 31.41985511779785 33.17801666259766 33.17801666259766 C 31.41985511779785 34.93617630004883 29.37263679504395 36.31647491455078 27.09324645996094 37.28057479858398 C 24.73360633850098 38.27862548828125 22.22675514221191 38.78467559814453 19.64233589172363 38.78467559814453 Z" stroke="none"/>
    <path d="M 19.64233589172363 0.9999961853027344 C 17.12519645690918 0.9999961853027344 14.68388557434082 1.492755889892578 12.38620567321777 2.464595794677734 C 10.16640663146973 3.403484344482422 8.172615051269531 4.747806549072266 6.460216522216797 6.460216522216797 C 4.747806549072266 8.172615051269531 3.403484344482422 10.16640663146973 2.464595794677734 12.38620567321777 C 1.492755889892578 14.68388557434082 0.9999961853027344 17.12519645690918 0.9999961853027344 19.64233589172363 C 0.9999961853027344 22.15947532653809 1.492755889892578 24.60078620910645 2.464595794677734 26.89846611022949 C 3.403484344482422 29.11826705932617 4.747806549072266 31.11205673217773 6.460216522216797 32.82445526123047 C 8.172615051269531 34.536865234375 10.16640663146973 35.88118743896484 12.38620567321777 36.82007598876953 C 14.68388557434082 37.79191589355469 17.12519645690918 38.28467559814453 19.64233589172363 38.28467559814453 C 22.15947532653809 38.28467559814453 24.60078620910645 37.79191589355469 26.89846611022949 36.82007598876953 C 29.11826705932617 35.88118743896484 31.11205673217773 34.536865234375 32.82445526123047 32.82445526123047 C 34.536865234375 31.11205673217773 35.88118743896484 29.11826705932617 36.82007598876953 26.89846611022949 C 37.79191589355469 24.60078620910645 38.28467559814453 22.15947532653809 38.28467559814453 19.64233589172363 C 38.28467559814453 17.12519645690918 37.79191589355469 14.68388557434082 36.82007598876953 12.38620567321777 C 35.88118743896484 10.16640663146973 34.536865234375 8.172615051269531 32.82445526123047 6.460216522216797 C 31.11205673217773 4.747806549072266 29.11826705932617 3.403484344482422 26.89846611022949 2.464595794677734 C 24.60078620910645 1.492755889892578 22.15947532653809 0.9999961853027344 19.64233589172363 0.9999961853027344 M 19.64233589172363 -3.814697265625e-06 C 30.4904956817627 -3.814697265625e-06 39.28467559814453 8.79417610168457 39.28467559814453 19.64233589172363 C 39.28467559814453 30.4904956817627 30.4904956817627 39.28467559814453 19.64233589172363 39.28467559814453 C 8.79417610168457 39.28467559814453 -3.814697265625e-06 30.4904956817627 -3.814697265625e-06 19.64233589172363 C -3.814697265625e-06 8.79417610168457 8.79417610168457 -3.814697265625e-06 19.64233589172363 -3.814697265625e-06 Z" stroke="none" fill="#5e5573"/>
  </g>
  <path id="twitter" d="M23.95,53.485c.017.237.017.474.017.711A15.459,15.459,0,0,1,8.4,69.762,15.46,15.46,0,0,1,0,67.306a11.319,11.319,0,0,0,1.321.068,10.956,10.956,0,0,0,6.792-2.337A5.48,5.48,0,0,1,3,61.242a6.9,6.9,0,0,0,1.033.085,5.786,5.786,0,0,0,1.44-.186,5.472,5.472,0,0,1-4.387-5.369V55.7a5.51,5.51,0,0,0,2.473.694,5.479,5.479,0,0,1-1.694-7.317,15.551,15.551,0,0,0,11.28,5.725,6.176,6.176,0,0,1-.136-1.253,5.476,5.476,0,0,1,9.468-3.743,10.771,10.771,0,0,0,3.472-1.321A5.456,5.456,0,0,1,23.543,51.5a10.968,10.968,0,0,0,3.15-.847,11.76,11.76,0,0,1-2.744,2.829Z" transform="translate(7.555 -38.618)" fill="#0d0d0d"/>
</svg>
